<?xml version="1.0" encoding="UTF-8" standalone="no"?><svg xmlns="http://www.w3.org/2000/svg" xmlns:xlink="http://www.w3.org/1999/xlink" contentScriptType="application/ecmascript" contentStyleType="text/css" height="256px" preserveAspectRatio="none" style="width:622px;height:256px;" version="1.1" viewBox="0 0 622 256"
    width="622px" zoomAndPan="magnify"><defs><filter height="300%" id="f15fyv44sedprj" width="300%" x="-1" y="-1"><feGaussianBlur result="blurOut" stdDeviation="2.0"/><feColorMatrix in="blurOut" result="blurOut2" type="matrix" values="0 0 0 0 0 0 0 0 0 0 0 0 0 0 0 0 0 0 .4 0"/><feOffset dx="4.0" dy="4.0" in="blurOut2" result="blurOut3"/><feBlend in="SourceGraphic" in2="blurOut3" mode="normal"/></filter></defs><g><!--cluster CommonTasks--><polygon fill="#FFFFFF" filter="url(#f15fyv44sedprj)" points="297,173,411,173,418,195.4883,555,195.4883,555,244,297,244,297,173" style="stroke: #000000; stroke-width: 1.5;"/><line style="stroke: #000000; stroke-width: 1.5;" x1="297" x2="418" y1="195.4883" y2="195.4883"/><text fill="#000000" font-family="sans-serif" font-size="14" font-weight="bold" lengthAdjust="spacingAndGlyphs" textLength="108" x="301" y="188.5352">CommonTasks</text><!--entity 设计--><rect fill="#FEFECE" filter="url(#f15fyv44sedprj)" height="36.4883" style="stroke: #000000; stroke-width: 1.5;" width="48" x="305" y="200"/><text fill="#000000" font-family="sans-serif" font-size="14" lengthAdjust="spacingAndGlyphs" textLength="28" x="315" y="223.5352">设计</text><!--entity 实现--><rect fill="#FEFECE" filter="url(#f15fyv44sedprj)" height="36.4883" style="stroke: #000000; stroke-width: 1.5;" width="48" x="499" y="200"/><text fill="#000000" font-family="sans-serif" font-size="14" lengthAdjust="spacingAndGlyphs" textLength="28" x="509" y="223.5352">实现</text><!--entity 迭代测试--><rect fill="#FEFECE" filter="url(#f15fyv44sedprj)" height="36.4883" style="stroke: #000000; stroke-width: 1.5;" width="76" x="388" y="200"/><text fill="#000000" font-family="sans-serif" font-size="14" lengthAdjust="spacingAndGlyphs" textLength="56" x="398" y="223.5352">迭代测试</text><!--entity 礼让行人预警系统--><rect fill="#FEFECE" filter="url(#f15fyv44sedprj)" height="36.4883" style="stroke: #000000; stroke-width: 1.5;" width="132" x="172" y="8"/><text fill="#000000" font-family="sans-serif" font-size="14" lengthAdjust="spacingAndGlyphs" textLength="112" x="182" y="31.5352">礼让行人预警系统</text><!--entity 顶层设计--><rect fill="#FEFECE" filter="url(#f15fyv44sedprj)" height="36.4883" style="stroke: #000000; stroke-width: 1.5;" width="76" x="6" y="104"/><text fill="#000000" font-family="sans-serif" font-size="14" lengthAdjust="spacingAndGlyphs" textLength="56" x="16" y="127.5352">顶层设计</text><!--entity 需求分析--><rect fill="#FEFECE" filter="url(#f15fyv44sedprj)" height="36.4883" style="stroke: #000000; stroke-width: 1.5;" width="76" x="117" y="104"/><text fill="#000000" font-family="sans-serif" font-size="14" lengthAdjust="spacingAndGlyphs" textLength="56" x="127" y="127.5352">需求分析</text><!--entity 图像分析与行人检测子系统--><rect fill="#FEFECE" filter="url(#f15fyv44sedprj)" height="36.4883" style="stroke: #000000; stroke-width: 1.5;" width="188" x="228" y="104"/><text fill="#000000" font-family="sans-serif" font-size="14" lengthAdjust="spacingAndGlyphs" textLength="168" x="238" y="127.5352">图像分析与行人检测子系统</text><!--entity 行人分析与预警子系统--><rect fill="#FEFECE" filter="url(#f15fyv44sedprj)" height="36.4883" style="stroke: #000000; stroke-width: 1.5;" width="160" x="451" y="104"/><text fill="#000000" font-family="sans-serif" font-size="14" lengthAdjust="spacingAndGlyphs" textLength="140" x="461" y="127.5352">行人分析与预警子系统</text><!--link 礼让行人预警系统 to 顶层设计--><path d="M201.5101,44.0569 C168.4213,60.4307 119.6916,84.5444 85.211,101.6069 " fill="none" id="礼让行人预警系统-顶层设计" style="stroke: #A80036; stroke-width: 1.0;"/><polygon fill="#A80036" points="80.6556,103.8612,90.4961,103.4546,85.1369,101.6436,86.9479,96.2845,80.6556,103.8612" style="stroke: #A80036; stroke-width: 1.0;"/><!--link 礼让行人预警系统 to 需求分析--><path d="M222.3883,44.0569 C208.7951,59.7791 189.0321,82.6375 174.4207,99.5375 " fill="none" id="礼让行人预警系统-需求分析" style="stroke: #A80036; stroke-width: 1.0;"/><polygon fill="#A80036" points="170.8239,103.6977,179.736,99.5055,174.094,99.9153,173.6842,94.2733,170.8239,103.6977" style="stroke: #A80036; stroke-width: 1.0;"/><!--link 礼让行人预警系统 to 图像分析与行人检测子系统--><path d="M253.7998,44.0569 C267.5567,59.7791 287.5578,82.6375 302.3453,99.5375 " fill="none" id="礼让行人预警系统-图像分析与行人检测子系统" style="stroke: #A80036; stroke-width: 1.0;"/><polygon fill="#A80036" points="305.9855,103.6977,303.0693,94.2905,302.693,99.9348,297.0487,99.5585,305.9855,103.6977" style="stroke: #A80036; stroke-width: 1.0;"/><!--link 礼让行人预警系统 to 行人分析与预警子系统--><path d="M293.1111,44.0569 C343.6972,60.6312 418.4882,85.1361 470.6619,102.2305 " fill="none" id="礼让行人预警系统-行人分析与预警子系统" style="stroke: #A80036; stroke-width: 1.0;"/><polygon fill="#A80036" points="475.6387,103.8612,468.3316,97.2577,470.8873,102.3043,465.8406,104.86,475.6387,103.8612" style="stroke: #A80036; stroke-width: 1.0;"/><!--link 图像分析与行人检测子系统 to 设计--><path d="M323.3166,140.0569 C324.4436,155.5126 326.0735,177.8647 327.2991,194.6731 " fill="none" id="图像分析与行人检测子系统-设计" style="stroke: #A80036; stroke-width: 1.0;"/><polygon fill="#A80036" points="327.6655,199.6977,331.0002,190.4306,327.3018,194.7109,323.0214,191.0125,327.6655,199.6977" style="stroke: #A80036; stroke-width: 1.0;"/><!--link 图像分析与行人检测子系统 to 实现--><path d="M405.1933,140.0139 C430.7294,147.769 458.1092,158.4846 481,173 C490.4622,179.0001 499.2186,187.6334 506.2602,195.7365 " fill="none" id="图像分析与行人检测子系统-实现" style="stroke: #A80036; stroke-width: 1.0;"/><polygon fill="#A80036" points="509.5748,199.658,506.8199,190.2023,506.3471,195.8393,500.7101,195.3665,509.5748,199.658" style="stroke: #A80036; stroke-width: 1.0;"/><!--link 图像分析与行人检测子系统 to 迭代测试--><path d="M341.5616,140.0569 C358.7384,155.9124 383.7776,179.0255 402.1296,195.9658 " fill="none" id="图像分析与行人检测子系统-迭代测试" style="stroke: #A80036; stroke-width: 1.0;"/><polygon fill="#A80036" points="406.1725,199.6977,402.2724,190.6539,402.4985,196.3063,396.8462,196.5323,406.1725,199.6977" style="stroke: #A80036; stroke-width: 1.0;"/><!--link 行人分析与预警子系统 to 设计--><path d="M450.7856,138.4809 C423.7663,146.2934 394.325,157.4316 370,173 C360.667,178.9733 352.1017,187.6016 345.2408,195.7084 " fill="none" id="行人分析与预警子系统-设计" style="stroke: #A80036; stroke-width: 1.0;"/><polygon fill="#A80036" points="342.0137,199.6323,350.8199,195.222,345.1897,195.7706,344.6411,190.1404,342.0137,199.6323" style="stroke: #A80036; stroke-width: 1.0;"/><!--link 行人分析与预警子系统 to 实现--><path d="M529.4953,140.0569 C528.2073,155.5126 526.3446,177.8647 524.9439,194.6731 " fill="none" id="行人分析与预警子系统-实现" style="stroke: #A80036; stroke-width: 1.0;"/><polygon fill="#A80036" points="524.5252,199.6977,529.2589,191.061,524.9405,194.715,521.2865,190.3966,524.5252,199.6977" style="stroke: #A80036; stroke-width: 1.0;"/><!--link 行人分析与预警子系统 to 迭代测试--><path d="M511.2503,140.0569 C493.9084,155.9124 468.6284,179.0255 450.0999,195.9658 " fill="none" id="行人分析与预警子系统-迭代测试" style="stroke: #A80036; stroke-width: 1.0;"/><polygon fill="#A80036" points="446.0181,199.6977,455.3594,196.5767,449.7082,196.3238,449.9611,190.6726,446.0181,199.6977" style="stroke: #A80036; stroke-width: 1.0;"/><!--
@startuml
rectangle 礼让行人预警系统
rectangle 顶层设计
rectangle 需求分析
rectangle 图像分析与行人检测子系统
rectangle 行人分析与预警子系统

礼让行人预警系统 - -> 顶层设计
礼让行人预警系统 - -> 需求分析
礼让行人预警系统 - -> 图像分析与行人检测子系统
礼让行人预警系统 - -> 行人分析与预警子系统
package CommonTasks {
    rectangle 设计
    rectangle 实现
    rectangle 迭代测试
}
图像分析与行人检测子系统 - -> 设计
图像分析与行人检测子系统 - -> 实现
图像分析与行人检测子系统 - -> 迭代测试

行人分析与预警子系统 - -> 设计
行人分析与预警子系统 - -> 实现
行人分析与预警子系统 - -> 迭代测试
@enduml

PlantUML version 1.2018.02(Sat Mar 10 01:20:44 CST 2018)
(GPL source distribution)
Java Runtime: Java(TM) SE Runtime Environment
JVM: Java HotSpot(TM) 64-Bit Server VM
Java Version: 1.8.0_151-b12
Operating System: Mac OS X
OS Version: 10.11.6
Default Encoding: UTF-8
Language: zh
Country: CN
--></g></svg>
